<?xml version="1.0" standalone="no"?>
<!DOCTYPE svg PUBLIC "-//W3C//DTD SVG 20010904//EN"
 "http://www.w3.org/TR/2001/REC-SVG-20010904/DTD/svg10.dtd">
<svg version="1.0" xmlns="http://www.w3.org/2000/svg"
 width="1125.000000pt" height="1125.000000pt" viewBox="0 0 1125.000000 1125.000000"
 preserveAspectRatio="xMidYMid meet">
<metadata>
Created by potrace 1.14, written by Peter Selinger 2001-2017
</metadata>
<g transform="translate(0.000000,1125.000000) scale(0.100000,-0.100000)"
fill="#000000" stroke="none">
<path d="M8630 9088 c-8 -22 -25 -78 -88 -288 -13 -47 -32 -107 -41 -135 l-17
-50 -204 -7 c-113 -3 -259 -11 -325 -17 -66 -5 -163 -13 -215 -16 -127 -7
-270 -27 -270 -37 0 -4 -8 -8 -18 -8 -9 0 -53 -15 -96 -33 -86 -36 -205 -126
-250 -189 -15 -21 -54 -52 -92 -73 l-66 -37 -111 10 c-390 37 -754 52 -1268
52 -579 0 -891 -15 -1213 -57 -93 -12 -120 -13 -126 -3 -10 17 -82 4 -112 -20
-13 -10 -53 -30 -88 -45 -64 -27 -125 -57 -185 -93 -135 -79 -198 -119 -320
-201 -123 -83 -290 -204 -305 -220 -3 -4 -23 -20 -45 -36 -38 -28 -252 -207
-324 -270 -19 -16 -116 -105 -215 -196 -111 -101 -192 -168 -210 -173 -33 -8
-55 -32 -56 -58 0 -31 -69 -98 -100 -98 -15 0 -35 -9 -45 -20 -13 -14 -31 -20
-64 -20 -37 -1 -53 -7 -78 -30 -59 -53 -52 -56 156 -75 330 -29 718 -51 1146
-65 804 -26 979 -30 1500 -36 677 -9 931 3 978 42 16 13 32 24 35 24 16 0 62
51 122 135 36 50 68 92 71 95 3 3 17 22 30 42 30 46 200 283 292 408 124 167
212 285 217 290 3 3 34 43 70 90 75 99 88 114 195 232 179 198 178 196 170
244 l-6 42 88 44 c151 76 338 144 468 168 28 6 70 14 95 20 25 5 131 19 235
32 163 18 245 22 570 22 379 1 409 -1 805 -45 52 -5 111 -12 130 -13 19 -2 71
-11 115 -20 44 -8 130 -24 190 -35 61 -11 130 -27 154 -35 54 -20 72 -9 51 30
-35 64 -264 136 -535 169 -71 8 -159 20 -195 25 -101 16 -580 59 -664 60 -16
0 -18 6 -13 48 3 26 13 72 23 102 9 30 18 66 21 80 2 14 8 34 13 45 5 11 11
34 14 50 10 63 23 111 35 133 12 23 8 42 -10 42 -5 0 -14 -10 -19 -22z m-2355
-1011 c162 -5 215 -13 229 -36 4 -6 2 -28 -3 -48 -31 -116 -36 -133 -42 -133
-3 0 -21 19 -39 41 -43 54 -103 80 -201 86 -142 10 -257 -39 -296 -125 -12
-28 -16 -69 -16 -173 0 -193 26 -273 110 -336 47 -35 53 -43 49 -68 -2 -15
-22 -27 -80 -47 -131 -45 -181 -84 -226 -172 -17 -32 -39 -45 -49 -27 -21 34
-241 38 -345 7 -27 -8 -54 -12 -59 -9 -18 11 6 208 42 343 11 40 19 76 57 245
20 92 32 125 49 140 19 17 24 33 29 98 8 127 50 177 147 177 49 0 115 14 182
39 19 7 191 6 462 -2z m-1405 -42 c9 -11 33 -15 85 -15 l73 0 -34 -97 c-95
-270 -140 -418 -219 -726 -24 -94 -46 -179 -49 -187 -5 -13 -59 -15 -389 -17
-210 0 -452 -6 -537 -12 -248 -19 -400 -31 -468 -39 -35 -4 -66 -4 -68 0 -3 4
7 54 21 110 14 57 30 119 35 138 32 133 39 146 97 196 31 27 66 55 77 63 12 8
23 18 26 21 3 4 32 26 65 51 33 24 62 47 65 50 3 3 47 35 99 70 136 92 185
119 484 265 27 13 57 24 67 24 11 0 21 4 24 9 3 5 16 11 28 14 13 3 61 17 108
32 47 14 112 31 145 37 33 5 78 13 100 18 71 14 151 11 165 -5z m1347 -735
c41 0 43 -1 33 -20 -9 -17 -21 -20 -75 -20 -63 0 -65 1 -65 26 0 24 3 26 31
20 17 -3 51 -6 76 -6z"/>
<path d="M7025 8568 c-55 -4 -127 -8 -160 -8 -33 0 -67 -5 -75 -10 -14 -9 135
-13 500 -14 125 0 207 15 194 36 -7 11 -283 8 -459 -4z"/>
<path d="M5705 8564 c-11 -2 -140 -8 -287 -14 -147 -5 -289 -14 -315 -20 -26
-5 -91 -14 -143 -20 -199 -23 -390 -66 -505 -113 -83 -34 -225 -149 -225 -183
0 -8 14 -3 105 31 142 54 237 81 385 111 41 9 118 25 170 36 52 12 122 24 155
28 33 4 121 16 195 28 74 12 153 24 175 27 47 7 166 19 355 35 74 6 155 13
180 16 25 2 67 6 93 8 53 4 68 11 40 19 -23 7 -351 16 -378 11z"/>
<path d="M6420 8550 c-44 -4 -7 -7 119 -8 101 -1 182 0 180 2 -9 7 -237 12
-299 6z"/>
<path d="M8380 8359 c-47 -4 -120 -7 -162 -8 -42 -1 -80 -5 -83 -11 -3 -5 -30
-10 -58 -10 -29 0 -99 -9 -157 -21 -58 -12 -117 -23 -132 -26 -16 -3 -28 -9
-28 -14 0 -5 -11 -9 -25 -9 -13 0 -34 -4 -47 -9 -13 -5 -43 -17 -68 -26 -218
-85 -322 -151 -481 -306 -83 -82 -116 -118 -216 -236 -36 -43 -49 -59 -78 -98
-16 -22 -32 -42 -35 -45 -4 -3 -19 -23 -35 -45 -17 -22 -32 -42 -36 -45 -3 -3
-37 -50 -76 -105 -95 -134 -161 -264 -182 -360 -6 -27 -15 -71 -21 -97 -5 -26
-10 -62 -10 -80 0 -46 -9 -55 -60 -61 -43 -4 -157 -30 -280 -62 -30 -8 -64
-17 -75 -19 -22 -6 55 1 175 15 132 15 207 26 217 32 22 14 31 -15 42 -128 15
-153 25 -227 33 -241 4 -6 8 -28 10 -48 1 -21 8 -40 15 -43 7 -3 13 -14 13
-24 0 -19 2 -26 33 -87 9 -19 17 -40 17 -48 0 -8 5 -14 10 -14 6 0 10 -9 10
-20 0 -11 3 -20 8 -20 15 0 30 -57 30 -115 -1 -33 -3 -45 -5 -27 -4 27 -8 32
-21 27 -9 -4 -26 -10 -37 -13 -25 -7 -44 -31 -45 -57 -1 -11 -4 -14 -7 -7 -10
25 -57 40 -98 33 -82 -16 -131 -35 -153 -58 -20 -22 -22 -32 -16 -72 4 -25 11
-52 16 -58 22 -28 1 -42 -54 -37 -162 16 -400 -1 -589 -42 -68 -14 -137 -29
-154 -31 -16 -3 -34 -9 -40 -13 -5 -4 -29 -11 -53 -15 -24 -4 -56 -13 -70 -21
-15 -8 -34 -14 -43 -14 -8 0 -24 -7 -35 -15 -10 -8 -28 -15 -38 -15 -33 0
-264 -132 -323 -182 -52 -46 -83 -60 -83 -38 0 6 -8 10 -19 10 -10 0 -29 9
-43 20 -14 10 -47 28 -74 39 -27 10 -78 32 -114 49 -117 53 -138 62 -155 62
-31 0 -10 -22 41 -44 28 -11 57 -26 65 -33 8 -6 28 -15 44 -19 17 -4 42 -15
56 -25 15 -10 38 -23 53 -29 14 -5 26 -14 26 -20 0 -5 6 -10 13 -10 18 0 75
-29 83 -42 12 -19 -23 -39 -81 -45 -51 -5 -58 -4 -52 10 5 13 2 15 -17 7 -13
-4 -87 -12 -165 -16 -135 -6 -141 -8 -141 -28 0 -31 -34 -50 -60 -34 -11 7
-20 18 -20 25 0 8 -14 13 -39 13 -35 0 -43 -5 -82 -55 -39 -48 -48 -54 -81
-55 -27 0 -38 4 -38 15 0 9 -6 12 -15 9 -8 -4 -15 -12 -15 -19 0 -22 -36 -45
-71 -45 -19 0 -70 -7 -114 -16 -44 -8 -104 -18 -132 -21 -29 -3 -53 -9 -53
-14 0 -4 -19 -8 -42 -8 -84 1 -194 -13 -173 -22 18 -7 18 -8 -5 -9 l-25 -2 25
-8 c19 -6 10 -8 -36 -9 -34 -1 -83 -4 -110 -8 l-49 -8 50 -5 c45 -5 41 -7 -37
-11 -47 -2 -84 -1 -81 4 2 4 -5 7 -16 7 -10 0 -21 -5 -23 -11 -2 -6 -40 -13
-88 -16 -47 -3 -87 -9 -88 -14 -2 -5 -17 -9 -32 -9 -16 0 -32 -5 -35 -11 -4
-6 -13 -8 -21 -5 -8 3 -14 1 -14 -4 0 -5 -7 -7 -15 -4 -8 3 -21 0 -29 -8 -33
-29 -75 -56 -98 -64 -13 -5 -16 -13 -11 -32 l6 -26 -27 27 c-35 35 -52 30 -48
-14 6 -84 6 -108 -1 -115 -10 -11 -17 -1 -22 32 -19 118 -35 151 -95 192 -55
37 -77 41 -510 83 -113 11 -254 24 -315 30 -141 12 -268 24 -375 37 -47 6
-141 16 -210 22 -69 6 -159 15 -200 20 -123 15 -260 29 -345 35 -69 5 -84 3
-112 -14 -34 -21 -83 -90 -83 -115 0 -8 -4 -18 -10 -21 -5 -3 -10 -25 -10 -48
0 -23 -5 -49 -10 -57 -7 -10 -10 10 -10 65 0 45 4 85 9 90 13 15 -19 114 -41
126 -10 5 -22 8 -26 5 -4 -2 -7 -61 -7 -131 0 -119 1 -127 23 -143 17 -13 22
-26 20 -58 0 -22 2 -46 6 -52 3 -6 2 -13 -3 -16 -5 -3 -12 -18 -16 -33 -3 -15
-15 -39 -26 -55 -14 -20 -18 -35 -13 -50 8 -23 7 -118 -2 -169 -4 -30 24 -69
50 -69 9 0 16 -4 16 -10 0 -5 -9 -10 -20 -10 -11 0 -20 3 -20 8 0 7 -70 32
-90 32 -13 0 -5 -52 21 -137 12 -39 19 -91 19 -141 0 -59 4 -83 15 -92 14 -12
14 -15 -3 -34 -38 -42 -44 -63 -32 -120 11 -55 57 -137 94 -170 11 -10 41 -27
66 -38 25 -11 53 -24 63 -29 163 -87 203 -102 347 -127 40 -7 47 -12 65 -49
40 -78 107 -158 187 -220 32 -24 58 -48 58 -54 0 -5 -18 -9 -40 -9 -23 0 -53
-6 -68 -14 -15 -7 -48 -16 -74 -20 -47 -7 -76 -25 -127 -79 -127 -136 -122
-129 -115 -161 14 -62 97 -119 294 -201 36 -15 69 -31 74 -36 6 -5 19 -9 31
-9 12 0 25 -4 31 -9 5 -5 38 -19 74 -31 36 -11 74 -24 85 -29 57 -24 317 -101
360 -107 28 -3 55 -10 60 -14 6 -4 46 -13 90 -20 82 -12 208 -33 305 -51 30
-5 84 -14 120 -18 80 -11 549 -77 645 -91 39 -5 103 -15 144 -21 179 -27 447
-40 801 -38 173 2 608 3 965 4 l650 1 145 28 c185 35 208 40 305 66 71 19 156
39 290 70 47 11 251 76 280 90 11 5 40 18 65 30 47 21 64 31 115 65 16 11 37
25 46 30 9 6 43 28 75 50 70 47 159 86 274 121 47 14 103 32 125 39 47 16 147
45 260 76 44 11 91 25 105 30 39 14 529 136 633 158 169 36 434 98 443 104 19
11 254 47 404 62 85 8 193 22 240 31 47 8 130 22 185 29 132 19 184 29 280 55
193 51 255 57 705 75 63 3 140 9 170 14 30 6 82 12 115 15 142 14 170 18 224
31 105 28 175 74 227 151 l27 39 -23 43 c-21 39 -104 112 -128 112 -5 0 -15 7
-22 15 -9 11 -17 12 -30 5 -10 -6 -21 -10 -24 -10 -12 0 -6 36 15 90 32 85 40
112 49 155 4 22 15 67 25 100 9 33 18 69 20 80 21 131 25 181 25 305 0 81 4
150 8 155 28 32 69 171 83 285 33 268 19 507 -41 690 -10 30 -21 73 -25 95
-15 90 -24 133 -40 195 -9 36 -19 88 -22 115 -3 28 -10 53 -16 57 -6 4 -10 27
-8 53 1 27 -3 53 -10 61 -7 9 -16 34 -20 57 -7 40 -7 39 -4 -8 3 -27 7 -72 11
-98 l6 -48 -55 31 c-53 30 -60 31 -175 31 -162 1 -273 -10 -294 -29 -10 -8
-18 -12 -18 -9 0 3 -19 -1 -42 -9 -23 -8 -50 -11 -61 -8 -16 5 -19 3 -14 -10
4 -9 1 -16 -5 -16 -6 0 -19 -6 -27 -14 -9 -8 -34 -17 -56 -21 -28 -5 -36 -3
-26 3 12 9 13 13 1 27 -11 13 -10 18 6 30 11 8 14 14 7 15 -18 0 -16 20 2 20
11 0 15 -11 15 -41 0 -24 4 -38 10 -34 13 8 13 27 -1 62 -14 34 -18 73 -6 66
9 -5 37 15 37 28 0 9 -46 7 -136 -6 -49 -7 -94 4 -94 24 0 5 32 12 72 15 49 5
67 10 57 17 -8 5 -24 9 -36 9 -13 0 -23 4 -23 9 0 12 120 41 170 41 25 0 40 5
41 13 2 21 5 31 13 50 12 26 -2 84 -29 114 -22 26 -28 28 -107 28 -115 -1
-189 -24 -213 -68 -12 -23 -16 -45 -12 -73 8 -63 27 -128 40 -139 12 -11 57
-94 57 -107 0 -5 -18 -8 -40 -8 -22 0 -40 -4 -40 -10 0 -6 -33 -10 -80 -10
-62 0 -80 -3 -80 -14 0 -10 -22 -16 -80 -21 -44 -4 -80 -11 -80 -16 0 -5 -18
-9 -40 -9 -36 0 -40 2 -40 25 0 25 -1 25 -30 10 -17 -9 -40 -13 -54 -9 -15 3
-34 -1 -52 -13 -26 -17 -28 -17 -21 0 8 21 -15 23 -36 2 -19 -19 -127 -27
-127 -9 0 6 -15 14 -34 16 -24 3 -32 0 -29 -9 3 -7 -1 -13 -8 -13 -11 0 -11
-3 1 -10 13 -8 12 -10 -3 -10 -9 0 -27 -6 -38 -12 -17 -11 -23 -10 -38 9 l-18
22 -23 -24 c-30 -32 -40 -31 -40 1 l0 26 -19 -23 c-18 -22 -19 -22 -28 -3 -6
10 -16 57 -22 103 -10 76 -21 117 -21 80 0 -12 -2 -11 -10 1 -8 11 -10 -4 -9
-50 3 -81 -1 -209 -6 -195 -2 6 -6 23 -10 39 -5 24 -8 27 -16 15 -8 -12 -11
-11 -23 4 -14 18 -15 17 -31 -7 -9 -14 -33 -30 -54 -36 -115 -33 -281 -52
-281 -31 0 5 43 17 96 27 53 11 95 23 94 28 -1 5 4 13 12 17 10 7 8 9 -7 9
-16 1 -14 4 10 17 21 11 50 16 93 14 60 -2 63 -1 57 19 -3 11 -1 35 6 53 10
29 9 41 -6 82 -38 97 -98 105 -353 48 -34 -8 -82 -60 -83 -91 -1 -15 -1 -43 0
-63 2 -28 -3 -41 -19 -52 -16 -11 -18 -16 -8 -21 10 -5 10 -7 1 -12 -18 -8
-16 -34 2 -34 8 0 15 -4 15 -10 0 -5 -7 -7 -15 -4 -9 4 -15 0 -15 -10 0 -10
-9 -16 -24 -16 -13 0 -31 -3 -40 -6 -29 -11 -16 -24 24 -24 30 0 40 -4 40 -16
0 -12 -6 -15 -25 -10 -14 3 -36 9 -50 12 -19 5 -31 0 -48 -18 -19 -21 -29 -24
-69 -20 -27 2 -48 8 -48 13 0 5 -6 9 -13 9 -11 0 -52 -63 -52 -81 0 -4 -3 -11
-7 -15 -5 -4 -8 -2 -8 4 0 8 -26 12 -80 12 -47 0 -80 -4 -80 -10 0 -5 -8 -10
-17 -10 -9 0 -25 -8 -36 -17 -18 -17 -19 -17 -28 0 -11 19 -59 23 -75 7 -7 -7
-19 -4 -36 10 -33 25 -70 26 -85 1 -16 -25 -186 -40 -208 -17 -8 8 -15 19 -15
25 0 15 -17 14 -23 -1 -4 -9 -8 -10 -14 -3 -4 6 -21 18 -36 28 -15 10 -33 29
-39 43 -13 28 -28 32 -28 7 -1 -14 -6 -11 -25 11 -13 17 -22 34 -19 38 3 4 -2
11 -11 15 -10 3 -33 21 -53 39 -57 52 -82 52 -302 2 -30 -7 -58 -16 -61 -20
-11 -16 -40 18 -49 57 -12 52 -12 68 0 60 6 -3 10 -15 10 -25 0 -10 5 -20 12
-22 23 -8 141 14 155 28 14 13 18 13 34 -2 18 -16 20 -16 39 1 11 10 20 24 20
32 0 16 -5 16 -30 3 -38 -20 -30 9 15 54 25 26 45 51 45 56 0 6 7 13 16 17 9
3 14 13 11 24 -10 38 28 53 218 84 55 9 123 20 150 25 48 9 291 51 405 70 130
22 238 41 277 50 23 6 56 10 72 10 17 0 50 4 73 10 40 9 143 26 308 51 133 20
188 30 320 53 74 13 173 29 220 36 47 6 105 15 130 21 52 10 152 26 260 40 98
14 173 24 295 43 55 9 128 20 163 25 34 5 77 18 95 28 41 24 77 87 77 135 0
20 4 39 9 42 5 3 96 13 202 21 186 15 195 15 207 -2 81 -113 114 -142 147
-129 14 5 16 15 12 49 -20 161 -26 209 -36 267 -6 36 -15 81 -20 100 -5 19
-15 62 -21 95 -11 57 -32 141 -50 195 -46 144 -63 198 -69 215 -19 49 -99 198
-131 245 -9 14 -19 31 -22 39 -6 20 -35 22 -43 4 -3 -9 -3 -30 1 -47 4 -23 0
-38 -13 -52 -17 -20 -24 -21 -133 -13 -136 9 -211 12 -225 9 -28 -7 -45 5 -83
59 -93 132 -184 164 -587 203 -201 19 -802 16 -995 -6 -478 -54 -728 -154
-984 -397 -77 -73 -232 -244 -267 -295 -8 -11 -31 -41 -51 -65 -49 -59 -184
-243 -230 -316 -107 -168 -136 -306 -111 -533 5 -46 7 -95 5 -107 -4 -22 -5
-22 -18 -6 -12 17 -13 16 -14 -9 0 -57 -18 -25 -25 45 -3 39 -11 99 -16 132
-17 112 -9 213 28 345 35 128 125 268 372 585 151 194 231 282 336 370 102 87
193 147 300 198 22 10 53 25 68 33 16 8 35 14 43 14 8 0 22 4 32 9 31 16 218
61 255 61 12 0 27 4 33 9 11 11 201 28 404 36 85 4 159 11 165 16 5 5 16 9 25
9 13 0 13 -2 0 -11 -11 -7 -6 -8 20 -3 19 4 58 10 85 14 68 10 -180 10 -295
-1z m920 -209 c168 -18 281 -42 305 -66 8 -8 15 -25 15 -37 0 -12 9 -52 19
-89 12 -45 15 -71 8 -83 -6 -12 -4 -35 7 -74 33 -109 105 -515 106 -589 0 -12
-7 -25 -15 -29 -9 -3 -89 -2 -179 2 l-163 7 -7 55 c-10 82 -71 169 -145 205
-39 19 -62 22 -161 23 -133 0 -183 -15 -241 -72 -43 -41 -47 -38 -65 61 -14
76 -80 387 -94 446 -5 19 -14 58 -20 85 -6 28 -15 73 -21 101 -7 29 -9 57 -5
63 9 13 501 7 656 -9z m-1006 -31 c-3 -5 0 -9 7 -9 7 0 10 -3 6 -6 -3 -4 0
-23 8 -43 7 -20 21 -79 30 -131 9 -52 21 -114 26 -138 5 -23 9 -59 9 -78 l0
-37 -50 5 c-43 4 -52 2 -61 -14 -10 -19 -2 -160 21 -347 6 -50 7 -88 1 -94 -4
-4 -21 -7 -37 -5 l-29 3 0 213 0 213 -34 28 c-30 24 -37 27 -49 15 -16 -17
-11 -17 -141 1 -57 7 -109 11 -115 9 -6 -2 -60 3 -121 12 -175 25 -488 47
-479 33 2 -4 -5 -9 -15 -12 -14 -3 -20 -20 -28 -78 -10 -72 -43 -251 -65 -356
-16 -77 -40 -95 -132 -100 -86 -5 -76 -18 -96 119 -12 85 -16 74 60 172 65 83
194 228 212 237 13 7 43 32 67 56 24 23 50 43 56 43 7 0 18 7 25 15 7 9 19 14
26 11 8 -3 11 0 8 8 -3 9 10 19 35 30 23 9 41 20 41 26 0 5 5 10 11 10 5 0 7
-4 4 -10 -10 -16 61 -16 80 0 6 4 31 11 58 15 26 4 47 11 47 16 0 5 15 9 34 9
19 0 38 5 41 10 3 6 24 10 45 10 21 0 40 5 42 11 2 6 22 12 46 13 23 2 49 9
57 16 8 6 19 9 25 5 6 -4 29 0 53 9 23 8 63 18 90 21 26 3 45 10 42 16 -3 5 1
6 9 3 9 -3 29 -1 45 4 22 8 31 7 35 -1 2 -7 5 -4 5 6 1 12 -7 17 -26 18 l-28
2 28 4 c15 2 25 9 22 14 -4 5 -2 9 4 9 5 0 12 -6 14 -12 3 -8 6 -6 6 4 1 11 6
15 16 12 8 -4 12 -10 9 -15z m-126 -841 l-3 -43 -44 -3 c-62 -5 -91 4 -91 28
0 12 7 20 18 21 9 0 35 9 57 19 61 28 67 26 63 -22z m-1571 -845 c-3 -10 -5
-2 -5 17 0 19 2 27 5 18 2 -10 2 -26 0 -35z m-27 -27 c0 -8 -4 -18 -10 -21 -5
-3 -10 3 -10 14 0 12 5 21 10 21 6 0 10 -6 10 -14z m60 -17 c0 -11 -4 -17 -10
-14 -5 3 -10 15 -10 26 0 11 5 17 10 14 6 -3 10 -15 10 -26z m10 -218 c0 -11
-4 -23 -10 -26 -6 -4 -10 5 -10 19 0 14 5 26 10 26 6 0 10 -9 10 -19z m3433 2
c-7 -2 -19 -2 -25 0 -7 3 -2 5 12 5 14 0 19 -2 13 -5z m715 -59 c32 -10 68
-29 85 -45 16 -16 32 -29 36 -29 4 0 8 -6 8 -12 2 -44 34 -203 42 -211 6 -6
11 -28 11 -48 0 -21 4 -40 9 -43 12 -8 21 -46 10 -46 -5 0 -9 6 -9 13 -1 18
-108 84 -165 102 -79 24 -250 16 -330 -15 -11 -4 -36 -14 -55 -21 -19 -7 -52
-23 -72 -36 -46 -28 -48 -22 -8 20 16 18 30 37 30 44 0 6 6 13 13 16 6 2 9 8
5 12 -4 4 -23 -9 -43 -29 -21 -21 -45 -36 -60 -36 -13 0 -31 -10 -39 -22 -16
-22 -16 -22 -16 10 0 17 -5 32 -11 32 -6 0 -22 9 -37 20 -17 14 -28 17 -32 9
-5 -8 -19 -6 -47 8 -39 17 -40 19 -31 52 21 77 208 214 303 223 17 1 36 7 44
12 43 32 274 44 359 20z m-4133 -4 c3 -5 1 -10 -4 -10 -6 0 -11 5 -11 10 0 6
2 10 4 10 3 0 8 -4 11 -10z m3265 -24 c0 -9 -7 -12 -20 -9 -11 3 -17 9 -14 14
8 14 34 10 34 -5z m-500 -16 c0 -5 -4 -10 -10 -10 -5 0 -10 5 -10 10 0 6 5 10
10 10 6 0 10 -4 10 -10z m-143 -36 c0 -9 -8 -9 -29 -2 -35 13 -35 15 0 14 16
-1 29 -6 29 -12z m-679 -1 c-10 -2 -26 -2 -35 0 -10 3 -2 5 17 5 19 0 27 -2
18 -5z m662 -23 c0 -5 -2 -10 -4 -10 -3 0 -8 5 -11 10 -3 6 -1 10 4 10 6 0 11
-4 11 -10z m80 0 c0 -5 -5 -10 -11 -10 -5 0 -7 5 -4 10 3 6 8 10 11 10 2 0 4
-4 4 -10z m-321 -33 c-2 -2 -17 -11 -34 -21 l-30 -17 24 20 c13 12 28 21 34
21 6 0 8 -1 6 -3z m25 -15 c3 -5 0 -9 -7 -9 -7 0 -21 -4 -32 -7 -13 -5 -12 -2
5 8 30 18 28 18 34 8z m-54 -36 c0 -2 -7 -7 -16 -10 -8 -3 -12 -2 -9 4 6 10
25 14 25 6z m-2420 -111 c0 -19 -4 -35 -10 -35 -5 0 -10 16 -10 35 0 19 5 35
10 35 6 0 10 -16 10 -35z m97 3 c-3 -8 -6 -5 -6 6 -1 11 2 17 5 13 3 -3 4 -12
1 -19z m80 -20 c-3 -8 -6 -5 -6 6 -1 11 2 17 5 13 3 -3 4 -12 1 -19z m3320
-50 c-3 -8 -6 -5 -6 6 -1 11 2 17 5 13 3 -3 4 -12 1 -19z m-3892 -138 c108
-13 229 -67 305 -137 53 -48 130 -159 130 -186 0 -9 7 -20 15 -24 8 -5 18 -34
23 -68 5 -33 13 -68 17 -77 5 -13 3 -18 -9 -18 -11 0 -16 9 -16 30 0 28 -2 30
-38 30 -21 0 -43 5 -48 10 -7 7 -21 1 -45 -16 -23 -18 -28 -25 -14 -22 17 4
20 -1 21 -31 0 -19 6 -37 12 -39 7 -2 12 -10 12 -18 0 -8 -15 2 -32 23 -52 60
-60 68 -109 102 -138 97 -335 114 -639 55 -159 -31 -332 -96 -462 -176 l-37
-23 -93 44 c-51 24 -100 47 -108 52 -18 10 -61 30 -111 52 -19 9 -48 29 -63
43 -25 26 -26 28 -9 37 10 6 34 24 54 41 74 62 201 136 304 176 11 4 38 15 60
23 58 23 275 75 390 93 196 32 353 39 490 24z m-1294 -424 c6 4 14 3 18 -2 3
-5 47 -29 96 -53 50 -24 114 -59 143 -78 29 -18 62 -33 73 -33 16 0 0 -20 -63
-80 -77 -74 -108 -94 -108 -70 0 6 5 10 10 10 6 0 10 7 10 15 0 8 6 15 13 15
7 0 18 9 25 20 10 17 10 20 -3 20 -8 0 -15 -7 -15 -15 0 -8 -9 -15 -20 -15
-14 0 -18 5 -13 18 6 15 5 15 -10 4 -9 -8 -25 -11 -38 -7 -13 5 -25 2 -30 -6
-6 -11 -16 -9 -51 8 -24 12 -55 25 -70 28 -16 4 -28 10 -28 14 0 4 -13 8 -29
8 -17 0 -37 5 -45 12 -13 11 -13 17 1 56 8 26 23 47 34 50 12 4 19 15 19 31 0
13 4 24 9 24 5 0 11 9 14 21 5 17 9 19 26 9 12 -6 26 -8 32 -4z m5779 -152 c0
-3 -7 -12 -15 -20 -12 -13 -15 -13 -15 -1 0 7 3 17 7 20 8 8 23 9 23 1z
m-4090 -23 c0 -6 -4 -13 -10 -16 -5 -3 -10 1 -10 9 0 9 5 16 10 16 6 0 10 -4
10 -9z m3930 -2 c0 -6 -9 -9 -20 -6 -11 3 -27 -1 -34 -9 -8 -8 -18 -14 -23
-14 -4 0 -18 -13 -30 -28 -44 -56 -63 -75 -69 -69 -4 3 23 36 59 72 47 47 72
65 91 65 14 0 26 -5 26 -11z m-3913 -51 c-3 -8 -6 -5 -6 6 -1 11 2 17 5 13 3
-3 4 -12 1 -19z m33 -58 c0 -5 -4 -10 -10 -10 -5 0 -10 5 -10 10 0 6 5 10 10
10 6 0 10 -4 10 -10z m3691 -57 c-8 -15 -10 -15 -11 -2 0 17 10 32 18 25 2 -3
-1 -13 -7 -23z m-6938 10 c-13 -2 -33 -2 -45 0 -13 2 -3 4 22 4 25 0 35 -2 23
-4z m1656 -45 c-9 -16 -14 -19 -17 -9 -2 7 2 17 9 22 20 13 21 11 8 -13z m-37
-50 c-7 -7 -12 -8 -12 -2 0 6 3 14 7 17 3 4 9 5 12 2 2 -3 -1 -11 -7 -17z
m-1195 -5 c3 -9 -8 -13 -35 -13 -22 0 -54 -3 -71 -6 -24 -5 -31 -3 -31 9 0 20
8 22 77 22 36 0 58 -4 60 -12z m-1071 -55 c-3 -13 -6 -36 -6 -53 0 -27 -1 -28
-16 -13 -14 13 -14 21 -4 52 12 39 36 51 26 14z m1291 -50 c-3 -7 -5 -2 -5 12
0 14 2 19 5 13 2 -7 2 -19 0 -25z m6283 -33 c15 -19 14 -19 -10 -4 -14 9 -27
25 -29 34 -3 16 -1 17 10 4 8 -8 21 -23 29 -34z m-7603 -62 c-6 -78 3 -145 20
-150 6 -2 21 14 34 36 24 44 39 54 60 40 10 -6 10 -9 2 -9 -7 0 -13 -9 -13
-20 0 -11 -4 -20 -10 -20 -5 0 -10 -8 -10 -18 0 -10 -11 -29 -25 -42 -14 -13
-25 -29 -25 -37 0 -7 -4 -13 -10 -13 -16 0 -37 42 -44 89 -9 57 4 211 17 211
6 0 8 -25 4 -67z m-2032 19 c50 -2 94 -8 100 -13 5 -5 41 -9 80 -9 38 0 105
-7 148 -15 43 -8 103 -15 133 -15 30 0 54 -4 54 -9 0 -5 12 -9 28 -8 82 3 176
-4 163 -12 -9 -6 25 -11 95 -14 60 -3 163 -12 229 -21 66 -9 143 -19 170 -23
28 -3 52 -7 54 -9 2 -2 5 -98 6 -213 2 -171 0 -211 -11 -211 -7 0 -39 7 -71
15 -31 8 -84 15 -118 15 -43 0 -56 3 -45 10 15 10 167 5 203 -6 17 -5 18 6 17
185 l-1 191 -50 0 c-27 0 -49 5 -49 10 0 6 -9 10 -21 10 -11 0 -18 -4 -15 -9
3 -4 -6 -6 -19 -3 -14 2 -25 8 -25 13 0 5 -46 10 -102 10 -74 1 -93 4 -68 9
33 8 33 8 -15 9 -27 0 -78 1 -111 1 -43 0 -65 5 -74 15 -9 11 -16 12 -26 4 -9
-8 -27 -8 -62 0 -27 5 -59 7 -71 4 -14 -4 -26 -1 -31 7 -6 9 -27 13 -67 11
-32 -1 -87 5 -123 13 -36 9 -106 16 -157 16 -50 0 -93 4 -95 9 -2 4 -38 11
-80 14 l-78 5 0 -169 c0 -141 2 -171 15 -175 8 -4 13 -10 10 -14 -2 -4 25 -8
60 -9 36 -1 90 -8 121 -16 30 -8 87 -15 125 -16 38 -1 69 -5 69 -9 0 -5 12 -8
28 -7 87 3 176 -4 162 -13 -10 -7 7 -10 58 -10 40 0 83 -5 94 -11 11 -6 56
-14 100 -16 43 -3 81 -10 84 -14 3 -5 35 -9 72 -9 37 0 74 -5 82 -10 17 -12
-109 -7 -225 8 -38 5 -110 15 -160 21 -49 6 -115 16 -146 21 -30 6 -78 10
-106 10 -29 0 -62 4 -76 9 -13 5 -50 12 -83 14 -32 3 -88 10 -124 16 -36 6
-91 13 -122 17 l-57 5 -3 192 c-2 106 -1 198 1 205 2 8 10 10 20 5 9 -4 57 -9
106 -11z m3315 3 c0 -8 -4 -15 -9 -15 -13 0 -22 16 -14 24 11 11 23 6 23 -9z
m6890 -35 c0 -13 -11 -13 -30 0 -12 8 -11 10 8 10 12 0 22 -4 22 -10z m-8303
-32 c-3 -7 -5 -2 -5 12 0 14 2 19 5 13 2 -7 2 -19 0 -25z m263 7 c0 -8 7 -15
15 -15 8 0 15 -4 15 -9 0 -5 -12 -6 -27 -2 -30 8 -45 41 -19 41 9 0 16 -7 16
-15z m7970 5 c0 -5 -8 -10 -17 -10 -15 0 -16 2 -3 10 19 12 20 12 20 0z m-505
-70 c4 -6 -11 -10 -41 -8 -29 1 -49 -3 -52 -10 -2 -7 -8 -12 -13 -12 -6 0 -5
8 1 20 8 15 21 20 55 20 24 0 47 -5 50 -10z m-9375 -12 c0 -9 2 -9 -67 -14
-51 -4 -77 11 -30 18 41 6 97 4 97 -4z m593 -15 c-7 -2 -19 -2 -25 0 -7 3 -2
5 12 5 14 0 19 -2 13 -5z m-418 -13 c4 -6 -21 -10 -67 -9 -50 0 -67 3 -53 9
28 12 113 12 120 0z m355 0 c11 -7 7 -10 -17 -10 -18 0 -33 5 -33 10 0 13 30
13 50 0z m-679 -173 c-13 -13 -19 128 -6 156 8 17 11 3 13 -62 2 -46 -1 -88
-7 -94z m426 159 c12 -4 24 -2 28 4 4 6 16 5 36 -5 36 -19 39 -38 3 -25 -14 6
-48 10 -75 10 -46 0 -59 7 -42 24 4 3 12 5 17 3 6 -2 21 -7 33 -11z m179 -33
c-3 -3 -20 1 -38 8 l-33 14 35 5 c24 3 36 1 38 -8 2 -8 1 -16 -2 -19z m117 10
c4 -3 22 -8 39 -9 64 -7 98 -15 98 -24 0 -18 -92 -11 -106 8 -13 16 -13 16
-14 0 0 -11 -8 -18 -20 -18 -15 0 -20 7 -20 25 0 24 10 32 23 18z m-593 -39
c0 -2 -9 -4 -21 -4 -11 0 -18 4 -14 10 5 8 35 3 35 -6z m2260 0 c0 -2 -9 -4
-20 -4 -11 0 -20 4 -20 9 0 5 9 7 20 4 11 -3 20 -7 20 -9z m-2115 -14 c3 -5 1
-10 -4 -10 -6 0 -11 5 -11 10 0 6 2 10 4 10 3 0 8 -4 11 -10z m4938 -17 c20
-9 37 -20 37 -25 0 -4 7 -8 15 -8 8 0 15 -5 15 -11 0 -9 -57 16 -70 32 -11 12
-44 19 -61 14 -11 -4 -26 -18 -34 -33 l-14 -27 -1 24 c0 14 8 33 17 43 17 20
31 18 96 -9z m-4781 -55 c2 -21 1 -35 -3 -30 -8 7 -13 56 -9 82 2 13 3 13 6 0
1 -8 4 -32 6 -52z m1815 56 c-3 -3 -12 -4 -19 -1 -8 3 -5 6 6 6 11 1 17 -2 13
-5z m343 -14 c0 -9 -122 -29 -190 -31 -111 -2 -160 1 -160 10 0 9 48 15 215
26 44 3 85 7 90 9 14 4 45 -5 45 -14z m2338 4 c12 -8 22 -23 22 -32 -1 -16 -2
-16 -14 1 -39 52 -136 -11 -269 -174 -20 -25 -37 -49 -37 -53 0 -3 -10 -23
-23 -44 -41 -67 -49 -104 -32 -139 15 -29 70 -80 105 -95 12 -5 12 -7 -3 -7
-17 -1 -65 27 -93 54 -6 6 -15 22 -19 35 -4 14 -12 31 -18 38 -11 14 -10 15
39 117 26 54 61 110 89 141 86 95 120 126 172 154 45 24 52 24 81 4z m-4023
-48 c0 -37 -3 -52 -12 -49 -7 3 -10 18 -6 41 10 78 18 81 18 8z m1205 44 c0
-5 18 -10 39 -10 22 0 42 -3 44 -7 9 -14 -102 -1 -114 13 -9 11 -7 14 10 14
11 0 21 -4 21 -10z m-1490 -10 c0 -5 -4 -10 -9 -10 -6 0 -13 5 -16 10 -3 6 1
10 9 10 9 0 16 -4 16 -10z m180 -20 c0 -5 -7 -10 -15 -10 -8 0 -15 5 -15 10 0
6 7 10 15 10 8 0 15 -4 15 -10z m-630 -19 c0 -10 -51 -22 -63 -14 -4 2 -5 9
-2 14 8 12 65 12 65 0z m50 -11 c-8 -5 -22 -9 -30 -9 -10 0 -8 3 5 9 27 12 43
12 25 0z m60 0 c-8 -5 -22 -9 -30 -9 -10 0 -8 3 5 9 27 12 43 12 25 0z m-210
-20 c0 -5 -9 -10 -19 -10 -11 0 -23 5 -26 10 -4 6 5 10 19 10 14 0 26 -4 26
-10z m257 4 c-3 -3 -12 -4 -19 -1 -8 3 -5 6 6 6 11 1 17 -2 13 -5z m63 -4 c0
-5 -7 -10 -15 -10 -8 0 -15 5 -15 10 0 6 7 10 15 10 8 0 15 -4 15 -10z m124
-16 c4 -9 2 -13 -5 -8 -6 4 -15 1 -19 -6 -4 -7 -13 -9 -19 -6 -18 11 -13 24
12 29 12 2 23 5 23 6 1 0 5 -6 8 -15z m132 -6 c3 -4 -1 -8 -10 -8 -8 0 -16 -5
-18 -12 -3 -9 -14 -7 -41 5 -20 10 -37 20 -37 23 0 8 101 1 106 -8z m41 -10
c-3 -8 -6 -5 -6 6 -1 11 2 17 5 13 3 -3 4 -12 1 -19z m4400 -10 c-3 -7 -5 -2
-5 12 0 14 2 19 5 13 2 -7 2 -19 0 -25z m-4309 6 c32 -9 27 -24 -7 -24 -35 0
-61 9 -61 21 0 10 34 12 68 3z m-451 -20 c-3 -3 -12 -4 -19 -1 -8 3 -5 6 6 6
11 1 17 -2 13 -5z m213 2 c0 -2 -7 -6 -15 -10 -8 -3 -15 -1 -15 4 0 6 7 10 15
10 8 0 15 -2 15 -4z m312 -10 c7 4 8 2 4 -4 -11 -18 -26 -14 -25 6 0 10 3 12
6 4 2 -6 10 -9 15 -6z m8974 -25 c-3 -4 -17 -6 -31 -4 -14 3 -41 -2 -61 -12
-19 -9 -38 -14 -42 -10 -3 3 4 8 16 12 12 3 22 9 22 14 0 5 23 9 51 9 27 0 48
-4 45 -9z m-7136 -45 c30 -14 33 -39 5 -44 -11 -3 -24 -10 -28 -18 -4 -8 -22
-14 -40 -14 -18 0 -39 -5 -47 -11 -12 -8 -11 -9 6 -4 11 3 38 -3 60 -12 l39
-18 -130 -3 c-71 -2 -146 1 -165 7 -19 5 -65 13 -103 16 -37 4 -70 12 -74 18
-16 26 122 86 222 96 82 9 225 1 255 -13z m6030 -26 c0 -5 11 -10 25 -10 24 0
44 -24 32 -37 -4 -3 -23 1 -44 9 -21 9 -62 16 -92 17 -29 1 -61 5 -70 10 -9 5
-23 6 -31 4 -13 -4 -13 -3 0 6 19 14 180 15 180 1z m1310 -20 c0 -5 -7 -10
-15 -10 -8 0 -15 5 -15 10 0 6 7 10 15 10 8 0 15 -4 15 -10z m-4593 -87 c-3
-10 -5 -4 -5 12 0 17 2 24 5 18 2 -7 2 -21 0 -30z m-17 -20 c0 -13 -50 -67
-56 -61 -3 4 7 20 23 37 30 33 33 35 33 24z m4091 -12 c-8 -5 -20 -7 -28 -4
-21 8 -15 13 15 13 20 0 23 -3 13 -9z m-4021 -184 c0 -10 -10 -12 -32 -8 -32
4 -32 5 -8 12 37 11 40 10 40 -4z m-67 -24 c-7 -2 -21 -2 -30 0 -10 3 -4 5 12
5 17 0 24 -2 18 -5z m-2645 -36 c2 -10 -3 -17 -12 -17 -10 0 -16 9 -16 21 0
24 23 21 28 -4z m161 -32 c-9 -37 -13 -44 -27 -50 -16 -6 -32 10 -32 33 0 6 9
12 20 12 11 0 20 5 20 11 0 6 5 9 11 7 6 -2 9 -8 8 -13z m-199 -19 c0 -3 -4
-8 -10 -11 -5 -3 -10 -1 -10 4 0 6 5 11 10 11 6 0 10 -2 10 -4z m1863 -53
c-91 -4 -92 -4 -115 -36 -15 -21 -25 -53 -29 -92 l-6 -60 -1 68 c-2 60 1 70
25 97 26 30 27 30 122 28 l96 -2 -92 -3z m624 -145 c-2 -13 -4 -5 -4 17 -1 22
1 32 4 23 2 -10 2 -28 0 -40z m51 -223 c-3 -3 -9 2 -12 12 -6 14 -5 15 5 6 7
-7 10 -15 7 -18z m-144 -21 c37 -38 32 -58 -6 -23 -17 17 -38 27 -45 24 -8 -3
-33 -8 -56 -11 -51 -8 -74 -19 -109 -52 -16 -14 -28 -21 -28 -15 0 20 57 72
86 78 16 4 40 11 54 15 46 16 77 11 104 -16z m163 -16 c-3 -8 -6 -5 -6 6 -1
11 2 17 5 13 3 -3 4 -12 1 -19z m90 -84 c-3 -3 -12 -4 -19 -1 -8 3 -5 6 6 6
11 1 17 -2 13 -5z m-510 -41 c-3 -10 -5 -4 -5 12 0 17 2 24 5 18 2 -7 2 -21 0
-30z m-20 -60 c-3 -10 -5 -4 -5 12 0 17 2 24 5 18 2 -7 2 -21 0 -30z m-140 5
c-3 -8 -6 -5 -6 6 -1 11 2 17 5 13 3 -3 4 -12 1 -19z"/>
<path d="M7440 7880 c0 -5 6 -10 14 -10 8 0 18 5 21 10 3 6 -3 10 -14 10 -12
0 -21 -4 -21 -10z"/>
<path d="M7318 7768 c9 -9 15 -9 24 0 9 9 7 12 -12 12 -19 0 -21 -3 -12 -12z"/>
<path d="M8903 8343 c31 -2 83 -2 115 0 31 2 5 3 -58 3 -63 0 -89 -1 -57 -3z"/>
<path d="M9441 8296 c8 -8 78 -10 85 -3 4 4 -14 7 -41 7 -27 0 -46 -2 -44 -4z"/>
<path d="M9690 8226 c0 -2 9 -6 20 -9 11 -3 18 -1 14 4 -5 9 -34 13 -34 5z"/>
<path d="M6551 6554 c0 -11 3 -14 6 -6 3 7 2 16 -1 19 -3 4 -6 -2 -5 -13z"/>
<path d="M5860 6501 c0 -12 0 -24 0 -28 0 -5 6 -8 13 -8 6 0 12 11 12 24 0 13
-6 26 -12 29 -8 2 -13 -5 -13 -17z"/>
<path d="M10830 6471 c0 -5 5 -13 10 -16 6 -3 10 -2 10 4 0 5 -4 13 -10 16 -5
3 -10 2 -10 -4z"/>
<path d="M1572 6419 c-61 -31 -86 -70 -79 -124 6 -40 5 -44 -23 -55 -70 -29
-102 -97 -62 -133 70 -63 205 -58 277 11 17 15 26 17 45 9 14 -5 45 -12 70
-14 25 -2 68 -6 95 -8 28 -3 66 -7 85 -9 19 -1 42 -6 50 -9 8 -3 26 -6 40 -6
14 0 43 -2 65 -4 22 -3 71 -8 108 -12 38 -3 78 -10 90 -14 12 -4 33 -5 47 -1
14 4 30 3 35 -1 6 -4 35 -10 65 -14 72 -8 93 6 96 66 2 26 -4 54 -13 67 -12
19 -12 29 -3 52 17 42 5 68 -38 80 -59 16 -71 12 -103 -33 l-31 -44 -56 3
c-204 11 -257 22 -267 54 -8 25 -92 51 -119 37 -10 -5 -21 -18 -23 -28 -7 -25
-41 -16 -66 17 -10 13 -28 24 -38 24 -34 0 -56 18 -62 49 -5 24 -14 32 -53 45
-62 21 -80 20 -132 -5z"/>
<path d="M10850 6393 c0 -5 5 -15 10 -23 8 -12 10 -11 10 8 0 12 -4 22 -10 22
-5 0 -10 -3 -10 -7z"/>
<path d="M2764 6310 c-72 -15 -112 -37 -139 -79 -24 -36 -26 -44 -16 -72 6
-18 11 -46 11 -63 0 -17 6 -39 13 -48 15 -19 125 -60 139 -52 5 3 6 -5 3 -19
-9 -35 10 -67 40 -67 14 0 25 -4 25 -10 0 -5 13 -10 28 -10 23 0 32 8 50 46
l23 46 52 -7 c29 -3 72 -7 97 -9 25 -1 53 -6 63 -10 9 -5 24 -5 33 -2 8 3 25
1 36 -5 14 -8 28 -7 49 1 33 14 31 10 34 70 3 55 -17 90 -50 90 -13 0 -27 5
-30 11 -4 6 -30 9 -59 8 -29 -1 -57 0 -63 4 -6 4 -33 6 -60 6 -62 -2 -97 15
-90 43 7 25 -20 98 -42 116 -8 7 -21 10 -28 8 -7 -3 -15 -1 -18 4 -7 12 -43
11 -101 0z"/>
<path d="M6481 6284 c0 -11 3 -14 6 -6 3 7 2 16 -1 19 -3 4 -6 -2 -5 -13z"/>
<path d="M888 6229 c-13 -21 -141 -119 -156 -119 -4 0 -20 -12 -34 -27 -15
-16 -36 -36 -47 -45 -15 -13 -19 -25 -15 -50 4 -23 0 -39 -13 -54 -10 -11 -35
-54 -56 -95 -34 -65 -37 -78 -28 -102 6 -16 11 -30 11 -31 0 -8 -59 -64 -74
-69 -11 -4 -16 -18 -16 -47 0 -38 -1 -40 -25 -34 -20 5 -25 2 -25 -13 0 -10 7
-28 15 -40 23 -33 110 -93 135 -93 12 0 44 16 71 35 37 28 52 34 66 26 35 -18
91 -41 102 -41 6 0 19 -4 29 -9 48 -25 169 -52 397 -89 l110 -17 7 -49 c8 -56
27 -81 76 -97 62 -21 137 -5 250 52 l104 52 327 -2 c180 -1 404 2 497 8 93 6
208 13 257 16 78 5 88 4 94 -12 14 -38 75 -75 137 -84 62 -9 316 5 491 27 72
8 166 20 210 25 329 40 479 106 607 270 14 19 38 47 52 64 36 41 87 139 111
210 26 78 29 81 66 89 17 3 43 15 57 27 l27 22 -57 -7 c-50 -5 -57 -4 -63 13
-18 56 -72 95 -165 117 -68 16 -125 17 -260 3 -509 -52 -725 -116 -921 -274
-70 -57 -180 -168 -213 -215 l-21 -30 -145 0 c-80 0 -226 5 -325 10 -525 31
-657 41 -673 51 -9 6 -26 29 -37 51 -28 59 -67 80 -136 76 -40 -3 -69 -12
-103 -34 -93 -57 -110 -63 -171 -63 -59 -1 -369 30 -495 49 -36 6 -86 13 -112
16 -27 4 -48 7 -48 8 0 9 105 204 121 224 11 15 37 54 56 87 31 51 37 70 37
120 1 42 -4 69 -17 88 -21 32 -52 35 -69 6z m3528 -225 c14 -10 39 -17 56 -18
21 -1 37 -9 51 -28 l20 -26 -46 -94 c-25 -51 -52 -102 -61 -113 -15 -20 -15
-20 -16 2 0 20 -5 23 -41 21 -29 -1 -46 4 -54 16 -12 16 -16 14 -48 -19 -40
-42 -52 -40 -61 8 l-6 34 -75 -2 c-52 -1 -79 3 -87 12 -6 7 -19 13 -29 13 -11
0 -19 4 -19 9 0 5 36 12 80 16 67 6 80 10 86 27 3 12 -1 27 -11 38 -9 10 -15
29 -13 42 3 20 12 25 78 37 41 8 79 20 83 28 11 18 82 16 113 -3z m-3601 -57
c9 -34 -10 -74 -45 -92 -16 -8 -30 -19 -30 -23 0 -4 -10 -19 -23 -34 -20 -25
-24 -26 -41 -13 -16 12 -17 17 -6 30 7 8 21 15 31 15 12 0 19 7 19 19 0 10 9
30 20 44 11 14 20 37 20 51 0 21 5 26 25 26 17 0 26 -7 30 -23z m-84 -304 c-8
-15 -10 -15 -11 -2 0 17 10 32 18 25 2 -3 -1 -13 -7 -23z m3392 -15 c6 -21 -4
-48 -19 -48 -9 0 -14 11 -14 30 0 30 24 43 33 18z m-3589 -4 c17 -6 23 -44 7
-44 -12 0 -41 29 -41 41 0 10 12 12 34 3z m3402 -9 c4 -8 14 -15 24 -15 10 0
23 7 30 15 21 25 59 19 66 -11 8 -31 -11 -47 -37 -31 -14 9 -22 7 -36 -5 -13
-12 -23 -14 -33 -8 -24 15 -36 12 -48 -12 -6 -13 -11 -17 -11 -10 -1 6 -11 12
-23 12 -21 0 -21 0 -1 18 11 9 25 27 32 40 14 25 29 29 37 7z m-2248 -46 l-5
-24 -10 25 c-12 28 -6 47 9 32 5 -5 8 -20 6 -33z m-1009 2 c7 -5 10 -14 7 -20
-5 -8 -11 -7 -22 3 -24 24 -14 35 15 17z m797 -63 c-9 -12 -16 -30 -16 -39 0
-9 -9 -27 -21 -40 l-20 -24 5 33 c3 19 15 55 27 80 17 40 22 44 30 29 7 -12 6
-23 -5 -39z m2364 37 c0 -8 -9 -15 -20 -15 -25 0 -26 17 -2 23 9 3 18 5 20 6
1 0 2 -6 2 -14z m-2221 -6 c17 -6 31 -12 31 -13 0 -1 -9 -21 -20 -44 -11 -22
-20 -48 -20 -57 0 -22 -19 -27 -65 -17 -38 7 -39 9 -42 52 -5 74 40 105 116
79z m1731 -19 c0 -5 -4 -10 -9 -10 -6 0 -13 5 -16 10 -3 6 1 10 9 10 9 0 16
-4 16 -10z m-115 -21 c-4 -5 -16 -9 -28 -9 -21 1 -21 1 -3 15 20 15 41 11 31
-6z m-1585 -60 c0 -18 -34 -69 -43 -66 -11 3 -10 11 11 47 17 30 32 39 32 19z
m1821 -65 c11 -14 9 -19 -11 -35 -15 -11 -41 -19 -63 -19 -29 0 -40 -5 -44
-19 -4 -16 -8 -17 -29 -7 -21 9 -24 16 -19 40 9 48 22 56 90 56 45 0 66 -4 76
-16z m-432 -24 c6 0 16 -9 23 -20 7 -11 18 -20 25 -20 22 0 24 -19 3 -30 -28
-15 -65 9 -84 53 -15 36 -9 59 9 34 7 -10 17 -17 24 -17z m811 -18 c0 -5 -6
-9 -12 -10 -83 -13 -98 -13 -98 -4 0 6 21 13 48 15 26 2 50 4 55 5 4 1 7 -2 7
-6z"/>
<path d="M4365 5970 c3 -5 11 -10 16 -10 6 0 7 5 4 10 -3 6 -11 10 -16 10 -6
0 -7 -4 -4 -10z"/>
<path d="M10203 6243 c9 -2 23 -2 30 0 6 3 -1 5 -18 5 -16 0 -22 -2 -12 -5z"/>
<path d="M9940 6180 c0 -11 5 -20 10 -20 6 0 10 9 10 20 0 11 -4 20 -10 20 -5
0 -10 -9 -10 -20z"/>
<path d="M10400 6183 c0 -13 5 -23 10 -23 13 0 13 11 0 30 -8 12 -10 11 -10
-7z"/>
<path d="M6960 6090 c0 -5 5 -10 10 -10 6 0 10 5 10 10 0 6 -4 10 -10 10 -5 0
-10 -4 -10 -10z"/>
<path d="M8960 6084 c0 -8 5 -12 10 -9 6 3 10 10 10 16 0 5 -4 9 -10 9 -5 0
-10 -7 -10 -16z"/>
<path d="M4728 5943 c6 -2 18 -2 25 0 6 3 1 5 -13 5 -14 0 -19 -2 -12 -5z"/>
<path d="M4235 5310 c-3 -5 1 -10 9 -10 8 0 18 5 21 10 3 6 -1 10 -9 10 -8 0
-18 -4 -21 -10z"/>
<path d="M4097 5246 c-17 -13 -17 -14 1 -18 12 -4 18 1 18 13 0 11 0 19 -1 19
0 0 -8 -7 -18 -14z"/>
<path d="M4560 5230 c0 -5 5 -10 10 -10 6 0 10 5 10 10 0 6 -4 10 -10 10 -5 0
-10 -4 -10 -10z"/>
<path d="M4225 5220 c-3 -5 -1 -10 4 -10 6 0 11 5 11 10 0 6 -2 10 -4 10 -3 0
-8 -4 -11 -10z"/>
<path d="M4418 5213 c12 -2 32 -2 45 0 12 2 2 4 -23 4 -25 0 -35 -2 -22 -4z"/>
<path d="M3258 4913 c7 -3 16 -2 19 1 4 3 -2 6 -13 5 -11 0 -14 -3 -6 -6z"/>
</g>
</svg>
